<svg xmlns="http://www.w3.org/2000/svg" enable-background="new 0 0 256 256" viewBox="0 0 256 256"><path fill="#edf4fc" d="M186.269,12.125H85.901L35.5,62.526v159.008c0,6.787,5.553,12.341,12.341,12.341h138.428c6.787,0,12.341-5.553,12.341-12.341V24.466C198.609,17.678,193.056,12.125,186.269,12.125z"/><path fill="#5290db" d="M120.778,71.535h-17.657c-6.247,0-11.312,5.064-11.312,11.312v17.309H78.741c-6.247,0-11.312,5.064-11.312,11.312v18.717c0,6.247,5.065,11.312,11.312,11.312h12.193c1.654,0,2.995-1.341,2.995-2.995v-9.456c0-7.174,5.815-12.989,12.989-12.989h20.403c2.634,0,4.769-2.135,4.769-4.769v-28.44C132.09,76.599,127.026,71.535,120.778,71.535z"/><path fill="#fc8c48" d="M155.759,99.095h-12.193c-1.654,0-2.995,1.341-2.995,2.995v9.456c0,7.174-5.815,12.989-12.989,12.989h-20.403c-2.634,0-4.769,2.135-4.769,4.769v28.44c0,6.247,5.065,11.312,11.312,11.312h17.657c6.247,0,11.312-5.064,11.312-11.312v-17.309h13.068c6.247,0,11.312-5.064,11.312-11.312v-18.717C167.071,104.16,162.006,99.095,155.759,99.095z"/><circle cx="106.65" cy="85.845" r="4.77" fill="#edf4fc"/><circle cx="127.85" cy="154.746" r="4.77" fill="#edf4fc"/><path fill="#818182" d="M35.5,62.526h38.061c6.787,0,12.341-5.553,12.341-12.341V12.125L35.5,62.526z"/><path fill="#fc657e" d="M55.991,19.551c-4.149,0.773-7.419,3.976-8.208,8.041c-0.04,0.204-0.325,0.204-0.364,0c-0.789-4.065-4.059-7.268-8.208-8.041c-0.208-0.039-0.208-0.318,0-0.357c4.149-0.773,7.419-3.976,8.208-8.041c0.04-0.204,0.325-0.204,0.364,0c0.789,4.065,4.059,7.268,8.208,8.041C56.2,19.233,56.2,19.512,55.991,19.551z"/><path fill="#f5c84c" d="M120.486,250.253c-2.91,0.542-5.204,2.789-5.757,5.64c-0.028,0.143-0.228,0.143-0.255,0c-0.553-2.851-2.847-5.098-5.757-5.64c-0.146-0.027-0.146-0.223,0-0.25c2.91-0.542,5.204-2.789,5.757-5.64c0.028-0.143,0.228-0.143,0.255,0c0.553,2.851,2.847,5.098,5.757,5.64C120.632,250.03,120.632,250.225,120.486,250.253z"/><circle cx="75.055" cy="3.377" r="3.377" fill="#f5c84c"/><circle cx="212.055" cy="121.377" r="3.377" fill="#87d147"/><path fill="#70d6f9" d="M220.528,92.758h-1.824v-1.824c0-1.366-1.107-2.473-2.473-2.473s-2.473,1.107-2.473,2.473v1.824h-1.824c-1.366,0-2.473,1.107-2.473,2.473s1.107,2.473,2.473,2.473h1.824v1.824c0,1.366,1.107,2.473,2.473,2.473s2.473-1.107,2.473-2.473v-1.824h1.824c1.366,0,2.473-1.107,2.473-2.473S221.893,92.758,220.528,92.758z"/><circle cx="141.439" cy="245.627" r="3.377" fill="#70d6f9"/><path d="M186.269,236.375H47.841c-8.183,0-14.841-6.658-14.841-14.841V62.526c0-0.663,0.263-1.299,0.732-1.768l50.401-50.401c0.469-0.469,1.104-0.732,1.768-0.732h100.367c8.184,0,14.841,6.658,14.841,14.841v197.068C201.109,229.717,194.452,236.375,186.269,236.375z M38,63.562v157.972c0,5.426,4.415,9.841,9.841,9.841h138.428c5.426,0,9.841-4.415,9.841-9.841V24.466c0-5.426-4.415-9.841-9.841-9.841H86.937L38,63.562z"/><path d="M73.561 65.026H36.687c-1.381 0-2.5-1.119-2.5-2.5s1.119-2.5 2.5-2.5h36.873c5.426 0 9.841-4.415 9.841-9.841V13.417c0-1.381 1.119-2.5 2.5-2.5s2.5 1.119 2.5 2.5v36.768C88.401 58.369 81.744 65.026 73.561 65.026zM103.689 186.172H93.658c-.276 0-.5.224-.5.5v31.57c0 .276.224.5.5.5h4.075c.276 0 .5-.224.5-.5v-12.218h5.456c6.856 0 11.292-3.363 11.292-9.904C114.981 190.184 111.399 186.172 103.689 186.172zM98.233 190.576h5.098c4.058 0 6.485 1.366 6.485 5.545 0 4.041-2.394 5.5-6.485 5.5h-5.098V190.576zM141.663 186.172h-4.657c-.188 0-.361.106-.446.275l-7.257 14.388-7.3-14.389c-.085-.168-.257-.274-.446-.274h-4.747c-.376 0-.618.401-.442.734l10.332 19.504v11.833c0 .276.224.5.5.5h4.119c.276 0 .5-.224.5-.5V206.41l10.287-19.504C142.28 186.574 142.04 186.172 141.663 186.172zM90.935 143.996H78.741c-7.616 0-13.812-6.196-13.812-13.812v-18.717c0-7.616 6.196-13.812 13.812-13.812H89.31V82.847c0-7.616 6.196-13.812 13.812-13.812h17.657c7.616 0 13.812 6.196 13.812 13.812v28.44c0 4.008-3.261 7.269-7.268 7.269h-20.403c-5.784 0-10.489 4.706-10.489 10.489v9.456C96.43 141.53 93.964 143.996 90.935 143.996zM78.741 102.655c-4.859 0-8.812 3.953-8.812 8.812v18.717c0 4.859 3.953 8.812 8.812 8.812h12.193c.273 0 .495-.222.495-.495v-9.456c0-8.541 6.948-15.489 15.489-15.489h20.403c1.25 0 2.268-1.018 2.268-2.269v-28.44c0-4.859-3.953-8.812-8.812-8.812h-17.657c-4.859 0-8.812 3.953-8.812 8.812v17.309c0 1.381-1.119 2.5-2.5 2.5H78.741z"/><path d="M111.42 102.655H92.34c-1.381 0-2.5-1.119-2.5-2.5s1.119-2.5 2.5-2.5h19.08c1.381 0 2.5 1.119 2.5 2.5S112.801 102.655 111.42 102.655zM131.379 171.556h-17.657c-7.616 0-13.812-6.196-13.812-13.812v-28.44c0-4.008 3.261-7.269 7.269-7.269h20.402c5.784 0 10.489-4.706 10.489-10.489v-9.456c0-3.03 2.465-5.495 5.495-5.495h12.193c7.615 0 13.812 6.196 13.812 13.812v18.717c0 7.616-6.196 13.812-13.812 13.812H145.19v14.809C145.19 165.36 138.994 171.556 131.379 171.556zM107.179 127.036c-1.251 0-2.269 1.018-2.269 2.269v28.44c0 4.859 3.953 8.812 8.812 8.812h17.657c4.858 0 8.812-3.953 8.812-8.812v-17.309c0-1.381 1.119-2.5 2.5-2.5h13.068c4.858 0 8.812-3.953 8.812-8.812v-18.717c0-4.859-3.953-8.812-8.812-8.812h-12.193c-.273 0-.495.222-.495.495v9.456c0 8.541-6.948 15.489-15.489 15.489H107.179z"/><path d="M142.16 142.936h-19.08c-1.381 0-2.5-1.119-2.5-2.5s1.119-2.5 2.5-2.5h19.08c1.381 0 2.5 1.119 2.5 2.5S143.541 142.936 142.16 142.936zM106.65 93.115c-4.009 0-7.27-3.261-7.27-7.27s3.261-7.271 7.27-7.271 7.27 3.262 7.27 7.271S110.659 93.115 106.65 93.115zM106.65 83.575c-1.251 0-2.27 1.019-2.27 2.271 0 1.251 1.019 2.27 2.27 2.27s2.27-1.019 2.27-2.27C108.92 84.593 107.901 83.575 106.65 83.575zM127.85 162.016c-4.009 0-7.27-3.261-7.27-7.27s3.261-7.27 7.27-7.27c4.008 0 7.27 3.261 7.27 7.27S131.858 162.016 127.85 162.016zM127.85 152.476c-1.251 0-2.27 1.019-2.27 2.27s1.019 2.27 2.27 2.27 2.27-1.019 2.27-2.27S129.102 152.476 127.85 152.476z"/></svg>