<svg xmlns="http://www.w3.org/2000/svg" enable-background="new 0 0 52 52" viewBox="0 0 52 52"><polygon fill="#1d2943" points="35.588 42.901 35.578 44.281 25.758 50.001 19.728 46.521 19.738 45.141 29.568 39.431" enable-background="new"/><polygon fill="#1d2943" points="35.585 42.903 35.583 44.286 25.754 49.998 25.757 48.615"/><polygon fill="#111d33" points="25.757 48.615 25.754 49.998 19.732 46.521 19.735 45.139"/><polygon fill="#4c5c75" points="35.585 42.903 25.757 48.615 19.735 45.139 29.564 39.427"/><polygon fill="#dedffb" points="31.548 43.151 25.428 46.681 23.788 45.731 23.768 38.101 25.408 39.051 31.528 35.521"/><polygon fill="#dedffb" points="25.432 46.681 23.791 45.728 23.769 38.102 25.409 39.055"/><polygon fill="#f3f1fc" points="31.526 35.523 31.549 43.149 25.432 46.681 25.409 39.055"/><polygon fill="#c3c7cf" points="25.409 39.055 23.769 38.102 29.886 34.57 31.526 35.523"/><path fill="#4c5c75" d="M41.2780457,7.9411058L13.4680481,48.2810707l-2.75-1.5899658c-0.3300171-0.1900024-0.5400391-0.6000366-0.5400391-1.1799927l-0.039978-21.2400513c-0.0100098-1.1699829,0.8200073-2.5899658,1.8300171-3.1899414l25.25-14.6100454c0.5200195-0.2999878,0.9799805-0.3200073,1.3200073-0.1300049L41.2780457,7.9411058z"/><path fill="#1d2943" d="M39.9664383,8.068449c1.0164375-0.5868039,1.8446503-0.1148415,1.8479462,1.0578928l0.0438042,21.2360802c0.0032921,1.1678886-0.8195877,2.5931759-1.8360291,3.1799793l-25.25144,14.615715c-1.0164146,0.5868034-1.8447237,0.1148415-1.8480186-1.0530472L12.878994,25.8688927c-0.0032949-1.172636,0.8194895-2.5979252,1.8359041-3.1847286L39.9664383,8.068449z"/><path fill="#e3e7f0" d="M41.8580627,28.0210609v2.3400269c0.0099487,1.1699829-0.8200073,2.5900269-1.8300171,3.1799927l-25.25,14.6199951c-0.539978,0.2999878-1.0200195,0.3200073-1.3500366,0.0900269l-2.7099609-1.5599976c-0.3300171-0.1900024-0.5400391-0.6000366-0.5400391-1.1799927v-2.4700317l2.7400513,1.710022L41.8580627,28.0210609z"/><path fill="#9ea9c9" d="M14.1286268,47.045208l-1.2069101-2.2944832l-2.74016-1.7104836l0.000268,2.4710312c0,0.5783501,0.2014847,0.987709,0.5328302,1.1761093l2.748497,1.5984955C15.0933323,47.433445,14.1350775,47.6300697,14.1286268,47.045208z"/><path fill="#e3e7f0" d="M41.8620491,28.0194721v2.3429489c0.0032959,1.1678886-0.8195877,2.5931759-1.8360252,3.1799793l-25.251442,14.615715c-1.0164146,0.5868034-1.8447237,0.1148415-1.8480186-1.0530472l-0.0048456-2.3513794L41.8620491,28.0194721z"/><path fill="#1d2943" d="M28.0251923,37.1330948c0.5215816-0.3012047,0.942955-0.0610542,0.944603,0.53825c0.0017681,0.5993042-0.416893,1.3243065-0.9384975,1.625412c-0.5214844,0.3011055-0.9428596,0.0610542-0.9445076-0.53825C27.0850468,38.1592026,27.5037079,37.4342003,28.0251923,37.1330948z"/><path fill="#57b3fe" d="M40.9537888,27.5713501L13.8104019,43.2803307L13.7834835,25.868021c-0.0089397-0.8512764,0.6452179-1.9804001,1.3800297-2.410593L40.4160957,8.8418083c0.206131-0.1164885,0.3316574-0.1255016,0.3764305-0.1255016c0.0537872,0.0179291,0.1254997,0.1344175,0.1254997,0.4122648L40.9537888,27.5713501z"/><g><path fill="#dedffb" d="M18.3324184,35.560585l-1.4035912-0.8171005c-0.2298985-0.1313858-0.3744373-0.4138489-0.3744373-0.8145866l-0.0525227-15.727953l1.6635857,0.6666336l2.284359,13.7460117C20.4498119,33.0142899,18.10252,35.4291992,18.3324184,35.560585z"/><path fill="#f3f1fc" d="M25.4655838,13.3108892c0.1635609-0.0944309,0.289814-0.0176821,0.2903347,0.165453l0.0019131,0.6746988c0.0005188,0.183135,0.1309547,0.2574701,0.2945137,0.1630383l0.4990997-0.2881556l11.3700943-6.5645266l0.0538445,15.7299347c0.0022812,0.8048267-0.5662498,1.789566-1.2708511,2.1963673L19.2404709,35.4705811c-0.7046146,0.4068069-1.2768631,0.0806999-1.2791462-0.7241249l-0.0538445-15.7299366l2.4451427-1.4117031c0.1593781-0.0920181,0.2889671-0.3164787,0.2884483-0.4996128l-0.0019131-0.6746979c-0.0005188-0.183136,0.1290684-0.4075966,0.2884483-0.4996138L25.4655838,13.3108892z"/><path fill="#bf7d5a" d="M37.5380554,2.9010668L17.9080505,19.0210609l-1.4100342-0.8199463l-0.0099487-3.7400503c0-0.8099976,0.5699463-1.7999878,1.2799683-2.2099609l17.460022-10.0800171c0.3499756-0.2000123,0.6699829-0.2199708,0.9099731-0.0899658L37.5380554,2.9010668z"/><path fill="#dba660" d="M36.6317787,2.9878554c0.7045975-0.4068005,1.2768478-0.0806925,1.2791443,0.7289498l0.0106163,3.744592L17.9074802,19.0165195l-0.0106163-3.7445917c-0.0022945-0.8096428,0.5662384-1.7943821,1.270853-2.2011909L36.6317787,2.9878554z"/><path fill="#fff" d="M36.9040451 9.1635046l.0505257 14.5588522c.0004807.1686687-.1082153.3569355-.2550087.4416866L19.2355003 34.2469254c-.1425991.0823288-.2561989.0224037-.2566776-.1462631L18.928299 19.5418091 36.9040451 9.1635046zM30.6568928 8.1654387c.444561-.2566671.8064346-.0504551.8078957.4652081.0014477.5108471-.3580742 1.1335564-.8026352 1.3902235-.4445744.2566757-.8064327.050456-.8078804-.460391C29.8528099 9.044816 30.2123184 8.4221144 30.6568928 8.1654387zM33.2614021 6.661726c.4445724-.2566757.8064308-.0504556.8078918.4652081.0014496.5108466-.3580589 1.1335478-.8026352 1.3902235-.4445724.2566757-.810627.0528774-.8120766-.4579687C32.4531212 7.5435247 32.8168259 6.9184017 33.2614021 6.661726zM35.8659058 5.1580133c.4445763-.2566757.8022537-.0480418.8037148.4676218.0014496.5108466-.353878 1.131134-.7984543 1.3878098-.444561.2566671-.810627.0528774-.8120766-.4579692C35.0576286 6.0398121 35.4213448 5.4146805 35.8659058 5.1580133z"/><polygon fill="#fff" points="27.635 10.384 27.638 11.286 18.931 16.313 18.928 15.411"/><path fill="#f45170" d="M31.5536118,17.9560814c0.0089054,2.2914219-1.6022415,5.0840874-3.5982685,6.229826c-1.9960251,1.1546421-3.6161308,0.2327309-3.6250916-2.0586891c-0.0089588-2.2914219,1.6021862-5.0840874,3.5982132-6.2387857C29.9245472,14.7337904,31.544651,15.6646614,31.5536118,17.9560814z"/><path fill="#fff" d="M27.1080532,18.4645538c0.0648708-0.0374565,0.1312199-0.0539742,0.1913662-0.0407219l2.0984135,0.3951035c0.2060928,0.0388088,0.2070656,0.3825226,0.0018692,0.6587887l-2.0893002,2.8200512c-0.0586147,0.078928-0.1233234,0.1367645-0.1868839,0.1734619c-0.1791248,0.1034164-0.349308,0.039114-0.349968-0.1934395l-0.0091152-3.2151604C26.7637672,18.8266277,26.9304485,18.5671024,27.1080532,18.4645538z"/><path fill="#dedffb" d="M35.0406532,22.1497231c0.2183266-0.1260509,0.3917084-0.0272179,0.3924026,0.2184162c0.0006981,0.2456322-0.1715431,0.5492325-0.3898697,0.6752834l-11.1672897,6.4462814c0.0604954-0.1674995,0.0946846-0.3383484,0.0942287-0.4993744c-0.0004616-0.1628551-0.0356255-0.295454-0.0970516-0.3941593L35.0406532,22.1497231z"/><path fill="#4c5c75" d="M23.1259785,28.5092621c0.3235588-0.1868057,0.6054821-0.140604,0.7471008,0.0869045c0.0614223,0.0987015,0.0965843,0.2312984,0.0970478,0.3941612c0.0004559,0.1610241-0.0337238,0.3318596-0.0942211,0.4993553c-0.1397686,0.3870049-0.4207001,0.7559013-0.7444744,0.9428329c-0.3206139,0.1851063-0.6017742,0.1407337-0.7429848-0.0840473c-0.0611229-0.0972805-0.0961418-0.2281628-0.0965996-0.389185c-0.0004616-0.1628647,0.0338211-0.335556,0.0943604-0.5046711C22.5257816,29.0647583,22.805582,28.6942444,23.1259785,28.5092621z"/><path fill="#dedffb" d="M20.8396873,30.347496l1.5465145-0.8928795c-0.0605392,0.1691227-0.0948257,0.3418179-0.0943642,0.504673c0.0004578,0.161026,0.0354767,0.2919178,0.0966072,0.3891945l-1.5462227,0.8927135c-0.2183151,0.1260433-0.3917122,0.0219975-0.3924084-0.2236366C20.4491177,30.7719288,20.6213741,30.4735394,20.8396873,30.347496z"/></g></svg>