<svg xmlns="http://www.w3.org/2000/svg" viewBox="0 0 512 512"><text font-family="DBHelvethaicaX-MedCond,DBHelvethaicaX MedCond" font-size="64" transform="translate(166.275 557.439)">TRUCK</text><g data-name="gammer flat outline"><path fill="#373737" d="M199.723 328.341h-4a36 36 0 0 1 0-71.994h32a20.019 20.019 0 0 0 20-20 8 8 0 0 1 16 0 36.037 36.037 0 0 1-36 36h-32a20 20 0 0 0-14.1 34.178 19.8 19.8 0 0 0 14.1 5.816h4a8 8 0 1 1 0 16Z"/><path fill="#55bfff" d="M95.736 24.393h319.965V232.37H95.736z"/><path fill="#feb314" d="m335.707 384.334-32 55.994-8 47.994h-32l8-63.993h5.519a2.492 2.492 0 0 0 2.48-2.479v-9.519l24-36-9.119-32-6.879-24h16l12 24Z"/><path fill="#6f6f6f" d="M319.709 296.344v47.994h-3.999l-11.999-23.997h-15.998l6.879 23.997H224.84l6.879-23.997h-15.998l-11.999 23.997h-4v-47.994h119.987z"/><path fill="#f4c3b1" d="M279.714 412.331v9.519a2.492 2.492 0 0 1-2.48 2.479h-5.519Z"/><path fill="#f4c3b1" d="M279.714 378.814v33.517l-8 12h-24l-8-12v-33.517a2.492 2.492 0 0 1 2.48-2.479h35.036a2.492 2.492 0 0 1 2.484 2.479Z"/><path fill="#feb314" d="m271.715 424.329-8 63.993h-7.999l-7.999-63.993h23.998z"/><path fill="#feb314" d="m183.724 384.334 20-40 12-24h16l-6.879 24-9.119 32 24 36v9.519a2.492 2.492 0 0 0 2.48 2.479h5.519l8 63.993h-32l-8-47.994Z"/><path fill="#f4c3b1" d="m239.718 412.331 8 12H242.2a2.492 2.492 0 0 1-2.48-2.479Z"/><path fill="#373737" d="M294.592 352.338H224.84a8 8 0 1 1 0-16h69.752a8 8 0 0 1 0 16zm33.117 0h-12a8 8 0 0 1-4-14.929v-41.065a8 8 0 0 1 16 0z"/><path fill="#8e8e8e" d="M203.722 352.338h-12v-63.994h127.987a8 8 0 0 1 0 16H207.723v33.065a8 8 0 0 1-4 14.929Z"/><path fill="#c88719" d="M247.725 432.331a7.99 7.99 0 0 1-6.664-3.564L207.014 377.7l17.014-59.56a8 8 0 0 1 15.381 4.409l-6.879 24-8.1 28.43 29.945 44.919a8 8 0 0 1-6.648 12.439Z"/><path fill="#ffe97d" d="M223.71 496.324a8 8 0 0 1-7.882-6.686l-7.764-46.584-33.41-58.468 36.122-72.245h20.943a8 8 0 0 1 0 16h-11.054L192.8 384.082l30.577 53.518 8.234 49.406a8.012 8.012 0 0 1-7.9 9.317zm47.997-63.993a8 8 0 0 1-6.648-12.439L295 374.973l-8.1-28.442-6.876-23.986a8 8 0 0 1 15.381-4.409l6.879 24 10.134 35.564-34.047 51.071a8 8 0 0 1-6.664 3.56z"/><path fill="#c88719" d="M295.722 496.324a8.012 8.012 0 0 1-7.9-9.317l8.235-49.406 30.582-53.519-27.87-55.741h-11.056a8 8 0 0 1 0-16h20.942l36.122 72.245-33.41 58.468-7.767 46.584a8 8 0 0 1-7.878 6.686Z"/><path fill="#cb9b8c" d="M259.716 432.33a8 8 0 0 1 0-16 12.012 12.012 0 0 0 12-12v-8a12.012 12.012 0 0 0-12-12 8 8 0 0 1 0-16 28.031 28.031 0 0 1 28 28v8a28.03 28.03 0 0 1-28 28Z"/><path fill="#ffeee8" d="M259.716 432.33a28.029 28.029 0 0 1-28-28v-8a28.03 28.03 0 0 1 28-28 8 8 0 0 1 0 16 12.012 12.012 0 0 0-12 12v8a12.012 12.012 0 0 0 12 12 8 8 0 0 1 0 16Z"/><path fill="#40241a" d="M319.709 496.322H199.723a24.025 24.025 0 0 1-24-24v-16h16v16a8.007 8.007 0 0 0 8 8h119.986a8.007 8.007 0 0 0 8-8v-16h16v16a24.025 24.025 0 0 1-24 24Z"/><path fill="#a4eaff" d="M247.716 160.358h16v75.992h-16zM359.706 120.382h16v31.997h-16zM207.723 176.376h16v31.996h-16zM215.722 24.393h16V56.39h-16zM143.729 48.39h16v31.996h-16zM271.716 56.389h16v31.997h-16zM119.732 200.373h16v31.997h-16z"/><path fill="#55bfff" d="M359.706 264.366h16v31.996h-16z"/><path fill="#a4eaff" d="M351.707 48.39h16v15.998h-16zM175.727 72.387h16v15.999h-16zM359.706 88.386h16v15.998h-16zM127.731 128.381h16v23.997h-16zM175.727 104.384h16v71.992h-16z"/><path fill="#55bfff" d="M95.735 272.365h16v31.997h-16zM127.731 296.362h16v15.999h-16zM79.736 352.356h16v23.997h-16zM127.731 328.359h16v71.992h-16z"/><path fill="#a4eaff" d="M247.718 128.381h16v15.998h-16zM311.711 168.377h16v71.992h-16zM287.714 112.383h16v23.998h-16z"/><path fill="#55bfff" d="M399.701 328.359h16v31.997h-16zM343.707 312.361h16v31.997h-16zM391.702 256.367h16v15.998h-16zM399.701 296.362h16v15.999h-16zM359.706 368.354h16v23.998h-16zM311.711 256.367h16v15.998h-16z"/><path fill="#8df" d="M103.736 232.37h-16V16.393H415.7v16H103.736V232.37z"/><path fill="#3eaedb" d="M423.7 240.37H95.736a8 8 0 1 1 0-16H407.7V24.393a8 8 0 1 1 16 0Z"/></g></svg>