<svg xmlns="http://www.w3.org/2000/svg" viewBox="0 0 468 468"><path fill="#fff" d="M300.563 255.579v-47.734c0-31.064 19.297-57.389 46.003-66.556V64c0-9.941-8.059-18-18-18H56.359c-9.941 0-18 8.059-18 18v214.139h242.363v-8.559c0-7.732 6.268-14 14-14"/><path fill="#e6e6de" d="M206.434 184.011h30.882v28h-30.882zM261.581 184.011h30.883v28h-30.883zM151.285 184.011h30.883v28h-30.883zM92.461 184.011h30.883v28H92.461z"/><path fill="#3baf15" d="M92.461 112.128h200.003v28H92.461z"/><path fill="#333" d="M280.722 278.139H14v18.433c0 22.571 18.368 40.869 41.026 40.869h225.696v-59.302z"/><path fill="#fff" d="M55.025 307.44c-3.295 0-7.348-2.508-10.369-5.759-4.75-5.112-11.574-7.766-18.485-6.804L14 296.571c0 22.571 18.368 40.869 41.026 40.869h190.802c8.284 0 15-6.716 15-15 0-8.284-6.716-15-15-15H55.025z"/><path fill="#fcd259" d="M294.722 422H440c7.732 0 14-6.268 14-14V269.579c0-7.732-6.268-14-14-14H294.722c-7.732 0-14 6.268-14 14V408c0 7.732 6.268 14 14 14z"/><path fill="#fff" d="M310.722 285.579h24.151c8.284 0 15-6.716 15-15 0-8.284-6.716-15-15-15h-40.151c-7.732 0-14 6.268-14 14v41.731c0 8.284 6.716 15 15 15 8.284 0 15-6.716 15-15v-25.731z"/><path fill="#f3c229" d="M454 408V303.379c0-8.284-6.716-15-15-15-8.284 0-15 6.716-15 15V392h-91.793c-8.284 0-15 6.716-15 15 0 8.284 6.716 15 15 15H440c7.732 0 14-6.268 14-14z"/><path fill="#fff" d="M384.847 326.227c-.111-7.296-2.977-14.126-7.862-18.737-6.207-5.859-13.043-5.859-19.248 0-4.885 4.612-7.751 11.441-7.862 18.737-.099 6.434 2.023 12.729 5.839 17.364l-5.694 30.894h34.683l-5.694-30.894c3.814-4.635 5.936-10.93 5.838-17.364z"/><path fill="#333" d="M440 241.579H314.563v-33.733c0-30.898 23.686-56.036 52.799-56.036s52.798 25.138 52.798 56.036v.175c0 7.732 6.268 14 14 14s14-6.268 14-14v-.175c0-46.338-36.246-84.036-80.799-84.036-44.552 0-80.798 37.698-80.798 84.036v34.952c-9.775 2.985-17.297 11.182-19.306 21.341H52.359V64c0-2.206 1.794-4 4-4h272.206c2.206 0 4 1.794 4 4v27.207c0 7.732 6.268 14 14 14s14-6.268 14-14V64c0-17.645-14.355-32-32-32H56.359c-17.645 0-32 14.355-32 32v200.139H14c-7.732 0-14 6.268-14 14v18.433c0 30.255 24.685 54.869 55.025 54.869h211.696V408c0 15.439 12.561 28 28 28H440c15.439 0 28-12.561 28-28V269.579c0-15.439-12.561-28-28-28zM266.722 323.44H55.025C40.123 323.44 28 311.387 28 296.571v-4.433h238.722v31.302zM440 408H294.722V269.579H440V408z"/></svg>