<svg xmlns="http://www.w3.org/2000/svg" data-name="line copy" viewBox="0 0 64 64"><defs><linearGradient id="a" x1="3.99" x2="59.99" y1="32.038" y2="32.038" gradientUnits="userSpaceOnUse"><stop offset="0" stop-color="#ffde00"/><stop offset="1" stop-color="#fd5900"/></linearGradient></defs><path fill="url(#a)" d="M58.67913,52.48106l-11.7146-11.7146a4.35307,4.35307,0,0,0-5.39662-.62074l-4.33934-4.33933a18.97856,18.97856,0,0,0,4.91687-12.73874C41.10558-2.22787,5.03866-2.24622,3.99033,23.06777,3.94007,39.51848,23.79342,48.23532,35.80672,37.228L40.146,41.56764a4.38338,4.38338,0,0,0,.62074,5.39711L52.48132,58.67886C56.65519,62.66118,62.6728,56.67548,58.67913,52.48106Zm-35.61122-12.347A17.08585,17.08585,0,0,1,6.0015,23.06765C6.93911.42674,39.20022.43331,40.13439,23.06777A17.08592,17.08592,0,0,1,23.06791,40.13406Zm34.1893,17.12288a2.42931,2.42931,0,0,1-3.354,0l-11.7146-11.7141a2.37179,2.37179,0,0,1,3.354-3.35446L57.25721,53.903A2.38277,2.38277,0,0,1,57.25721,57.25694Zm-23.414-33.5402h-3.221a14.29077,14.29077,0,0,0-.373-2.42526,7.04986,7.04986,0,0,0,2.91287-6.24174,1.00571,1.00571,0,0,0-2.011.00006A5.13578,5.13578,0,0,1,29.57234,19.257c-.47356-.87206-.78669-2.056-1.72743-2.45527-.04119-1.35858.29668-3.63077-.85175-4.63779l1.57535-1.57535a1.00565,1.00565,0,0,0-1.422-1.42186L25.123,11.19023a38.05142,38.05142,0,0,0-4.11023-.00007l-2.02356-2.0235a1.00564,1.00564,0,0,0-1.42186,1.422l1.57523,1.57522c-1.14622,1.00654-.81235,3.27486-.8515,4.638-.93448.39145-1.24148,1.56418-1.71449,2.42416a5.1023,5.1023,0,0,1-1.57615-4.14926,1.0057,1.0057,0,0,0-2.01116.00006,7.02923,7.02923,0,0,0,2.906,6.18074,14.2778,14.2778,0,0,0-.38175,2.4592h-3.221a1.00567,1.00567,0,0,0,.00006,2.01111h3.22263a14.084,14.084,0,0,0,.39359,2.47165,6.406,6.406,0,0,0-2.99468,5.41074v1.40621A1.0056,1.0056,0,0,0,13.91974,36.022c1.31592-.0553.96265-1.5392,1.00555-2.41182a4.38619,4.38619,0,0,1,1.65808-3.42124c2.86053,6.7924,10.17043,6.75152,12.99382-.05683a4.38778,4.38778,0,0,1,1.65495,3.41872v1.46562a1.00568,1.00568,0,0,0,2.01111-.00007V33.55083a6.40709,6.40709,0,0,0-3-5.41344,14.10114,14.10114,0,0,0,.37727-2.40954h3.22269A1.00575,1.00575,0,0,0,33.84324,23.71674ZM20.30215,14.30637A1.15061,1.15061,0,0,1,21.45157,13.157h3.23269a1.15061,1.15061,0,0,1,1.14942,1.14941v2.4638H20.30215Zm2.76576,18.98276c-5.3609-.03388-7.1367-10.09708-3.99839-14.50791l7.997.00006C30.20449,23.19132,28.4279,33.25789,23.06791,33.28913Z"/></svg>