<svg xmlns="http://www.w3.org/2000/svg" data-name="Layer 1" viewBox="0 0 168 168"><path fill="#0bceb2" d="M90 130a2 2 0 0 0-2 2v10a2 2 0 0 0 4 0v-10a2 2 0 0 0-2-2Z"/><path fill="#2d4356" d="M82 130a2 2 0 0 0-2 2v10a2 2 0 0 0 4 0v-10a2 2 0 0 0-2-2Z"/><path fill="#0bceb2" d="M74 130a2 2 0 0 0-2 2v10a2 2 0 0 0 4 0v-10a2 2 0 0 0-2-2zm52 7a7 7 0 1 0 7-7 7.008 7.008 0 0 0-7 7zm7-3a3 3 0 1 1-3 3 3.003 3.003 0 0 1 3-3zm-18-4a7 7 0 1 0 7 7 7.008 7.008 0 0 0-7-7zm0 10a3 3 0 1 1 3-3 3.003 3.003 0 0 1-3 3z"/><path fill="#2d4356" d="M102 135h-4a2 2 0 0 0 0 4h4a2 2 0 0 0 0-4zM60 86a7.956 7.956 0 0 1 .411-2.515 99.873 99.873 0 0 0-11.191.902A86.28 86.28 0 0 1 47.596 69h30.8a93.008 93.008 0 0 1-.603 9h4.014c.332-2.883.528-5.896.59-9h19.53a38.935 38.935 0 0 1-1.517 9h4.158a42.924 42.924 0 0 0-7.069-36.636 1.985 1.985 0 0 0-.282-.366 42.94 42.94 0 0 0-68.434 0 1.985 1.985 0 0 0-.282.365 42.876 42.876 0 0 0-.052 51.183 2 2 0 0 0 .377.506 42.98 42.98 0 0 0 31.412 16.85 8.546 8.546 0 0 1-.156-.832c-.007-.05-.016-.098-.022-.148A7.56 7.56 0 0 1 60 108v-2.832c-3.841-2.094-7.518-8.079-9.862-16.853A95.77 95.77 0 0 1 60 87.5zM47.597 65a86.312 86.312 0 0 1 1.622-15.38A100.88 100.88 0 0 0 63 50.55a100.882 100.882 0 0 0 13.781-.93A86.312 86.312 0 0 1 78.403 65zm47.496-20.124A38.756 38.756 0 0 1 101.949 65H82.403a89.622 89.622 0 0 0-1.707-16.013 72.378 72.378 0 0 0 14.397-4.111zm-2.55-3.293a69.708 69.708 0 0 1-12.751 3.506c-1.768-6.73-4.336-12.25-7.44-15.948a39.043 39.043 0 0 1 20.19 12.442zM63 28c4.848 0 9.917 6.642 12.867 17.707A97.207 97.207 0 0 1 63 46.55a97.207 97.207 0 0 1-12.867-.843C53.083 34.642 58.153 28 63 28zm-9.351 1.141c-3.105 3.699-5.673 9.218-7.44 15.948a69.708 69.708 0 0 1-12.752-3.506A39.043 39.043 0 0 1 53.65 29.141zM30.907 44.876a72.378 72.378 0 0 0 14.397 4.111A89.622 89.622 0 0 0 43.597 65H24.051a38.756 38.756 0 0 1 6.856-20.124zm0 44.246A38.734 38.734 0 0 1 24.054 69h19.542a89.588 89.588 0 0 0 1.709 16.014 72.364 72.364 0 0 0-14.396 4.108zm22.736 15.72a39.053 39.053 0 0 1-20.18-12.417 69.686 69.686 0 0 1 12.75-3.494c1.766 6.715 4.331 12.217 7.43 15.91z"/><path fill="#0bceb2" d="M90 90a2 2 0 0 0-2 2v10a2 2 0 0 0 4 0V92a2 2 0 0 0-2-2Z"/><path fill="#2d4356" d="M82 90a2 2 0 0 0-2 2v10a2 2 0 0 0 4 0V92a2 2 0 0 0-2-2Z"/><path fill="#0bceb2" d="M74 90a2 2 0 0 0-2 2v10a2 2 0 0 0 4 0V92a2 2 0 0 0-2-2zm59 0a7 7 0 1 0 7 7 7.008 7.008 0 0 0-7-7zm0 10a3 3 0 1 1 3-3 3.003 3.003 0 0 1-3 3zm-18-10a7 7 0 1 0 7 7 7.008 7.008 0 0 0-7-7zm0 10a3 3 0 1 1 3-3 3.003 3.003 0 0 1-3 3z"/><path fill="#2d4356" d="M102 95h-4a2 2 0 0 0 0 4h4a2 2 0 0 0 0-4Z"/><circle cx="2" cy="150" r="2" fill="#2d4356"/><path fill="#2d4356" d="M11 148H8a2 2 0 0 0 0 4h3a2 2 0 0 0 0-4zm149 0h-3a2 2 0 0 0 0 4h3a2 2 0 0 0 0-4z"/><circle cx="166" cy="150" r="2" fill="#2d4356"/><path fill="#0bceb2" d="M118.154 156h-8.308a2.006 2.006 0 0 0 0 4h8.308a2.006 2.006 0 0 0 0-4zm-60 0h-8.308a2.006 2.006 0 0 0 0 4h8.308a2.006 2.006 0 0 0 0-4zM104 156H64a2 2 0 0 0 0 4h15.94v2H72a2 2 0 0 0 0 4h25a2 2 0 0 0 0-4h-8.94v-2H104a2 2 0 0 0 0-4z"/><path fill="#2d4356" d="M150.721 148H148v-22a4.004 4.004 0 0 0-4-4h-11v-10h11a4.004 4.004 0 0 0 4-4V86a4.004 4.004 0 0 0-4-4H68a4.004 4.004 0 0 0-4 4v22a4.004 4.004 0 0 0 4 4h11v10H68a4.004 4.004 0 0 0-4 4v22H17.279a2.017 2.017 0 1 0 0 4H150.72a2.017 2.017 0 1 0 0-4zM68 108V86h76l.003 22zm61 4v10H83v-10zm-61 36v-22h76l.003 22zM6 57a3 3 0 1 0-3-3 3.003 3.003 0 0 0 3 3zm0-4.5A1.5 1.5 0 1 1 4.5 54 1.501 1.501 0 0 1 6 52.5zm153.22 2.81a2 2 0 1 0 2 2 2.002 2.002 0 0 0-2-2zm0 3a1 1 0 1 1 1-1 1.001 1.001 0 0 1-1 1zM12.78 8.664a2 2 0 1 0 2 2 2.002 2.002 0 0 0-2-2zm0 3a1 1 0 1 1 1-1 1.001 1.001 0 0 1-1 1zM120.78 2a2 2 0 1 0 2 2 2.002 2.002 0 0 0-2-2zm0 3a1 1 0 1 1 1-1 1.001 1.001 0 0 1-1 1zm-75 16.664a2 2 0 1 0-2 2 2.002 2.002 0 0 0 2-2zm-3 0a1 1 0 1 1 1 1 1.001 1.001 0 0 1-1-1z"/><path fill="#0bceb2" d="m93.192 18.675 1.487-1.956-.939-.531-.954 2.189h-.032l-.969-2.174-.956.548 1.472 1.909v.031L90 18.393v1.064l2.316-.297v.032L90.829 21.1l.892.564 1.018-2.207h.031l.938 2.191.986-.563-1.502-1.878v-.031l2.362.281v-1.064l-2.362.313v-.031zM66.671 5.73l-.856 1.099.513.325.587-1.271h.017l.541 1.262.568-.325-.865-1.081v-.018l1.36.162v-.612l-1.36.18v-.018l.856-1.126L67.491 4l-.549 1.261h-.019l-.558-1.252-.55.316.847 1.099v.018l-1.325-.171v.612l1.334-.171v.018zM133.536 33.543V32.5l-2.317.307v-.031l1.458-1.918-.921-.522-.936 2.148h-.031l-.951-2.133-.937.537 1.443 1.873v.031l-2.256-.292v1.043l2.271-.291v.031l-1.458 1.872.875.553.998-2.165h.03l.921 2.149.967-.552-1.473-1.842v-.031l2.317.276zM155.222 9.249l1.258-1.654-.794-.45-.807 1.853h-.027l-.821-1.84-.808.463 1.245 1.616v.026l-1.947-.252v.9l1.96-.251v.027l-1.258 1.614.754.477.862-1.867h.026l.794 1.854.834-.477-1.271-1.589v-.026l1.999.238v-.9l-1.999.265v-.027z"/></svg>